<?xml version="1.0" encoding="utf-8"?>
<!-- Generator: Adobe Illustrator 17.1.0, SVG Export Plug-In . SVG Version: 6.00 Build 0)  -->
<!DOCTYPE svg PUBLIC "-//W3C//DTD SVG 1.1//EN" "http://www.w3.org/Graphics/SVG/1.1/DTD/svg11.dtd">
<svg version="1.1" id="Layer_1" xmlns="http://www.w3.org/2000/svg" xmlns:xlink="http://www.w3.org/1999/xlink" x="0px" y="0px"
	 viewBox="0 0 22.6 25.5" enable-background="new 0 0 22.6 25.5" xml:space="preserve">
<g>
	<path fill="#4A494A" d="M22.6,8.9H2.9v1.9H0v1.4h3c0.2,3,2.4,5.6,5.6,6.8l-2.8,6.6h1.6l1.4-3.3h6.7c-0.1,0.2-0.1,0.5-0.1,0.8
		c0,1.4,1.1,2.6,2.6,2.6c1.4,0,2.6-1.1,2.6-2.6c0-1.4-1.1-2.6-2.6-2.6c-0.1,0-0.1,0-0.2,0l-0.6-1.6c3.2-1.3,5.4-4,5.4-7.2
		c0-0.1,0-0.2,0-0.2h0V8.9z M16.4,20.9h-7l0.7-1.5c0.9,0.2,1.8,0.3,2.7,0.3c1.1,0,2.2-0.2,3.3-0.5l0.6,1.6
		C16.5,20.9,16.5,20.9,16.4,20.9z"/>
	<g>
		<g>
			<rect x="7.5" y="0" fill="#4A494A" width="1.3" height="3.5"/>
			<rect x="8.7" y="3.5" fill="#4A494A" width="1.3" height="3.5"/>
		</g>
		<g>
			<rect x="11.2" y="0" fill="#4A494A" width="1.3" height="3.5"/>
			<rect x="12.4" y="3.5" fill="#4A494A" width="1.3" height="3.5"/>
		</g>
		<g>
			<rect x="14.9" y="0" fill="#4A494A" width="1.3" height="3.5"/>
			<rect x="16.2" y="3.5" fill="#4A494A" width="1.3" height="3.5"/>
		</g>
	</g>
</g>
</svg>
