<?xml version="1.0" encoding="utf-8"?>
<!-- Generator: Adobe Illustrator 17.1.0, SVG Export Plug-In . SVG Version: 6.00 Build 0)  -->
<!DOCTYPE svg PUBLIC "-//W3C//DTD SVG 1.1//EN" "http://www.w3.org/Graphics/SVG/1.1/DTD/svg11.dtd">
<svg version="1.1" id="Layer_1" xmlns="http://www.w3.org/2000/svg" xmlns:xlink="http://www.w3.org/1999/xlink" x="0px" y="0px"
	 viewBox="0 0 32.2 52.6" enable-background="new 0 0 32.2 52.6" xml:space="preserve">
<g>
	<path fill="#4A494A" d="M16.1,0C7.2,0,0,7.2,0,16.1c0,2.2,0.4,4.3,1.2,6.2h0l0,0c0.2,0.6,14.9,30.3,14.9,30.3l14.2-28.8
		c1.2-2.3,1.9-4.9,1.9-7.6C32.2,7.2,25,0,16.1,0z"/>
	<g>
		<path fill="#FFFFFF" d="M23.9,14.3H10.4v1.3h-2v0.9h2c0.1,2.1,1.7,3.8,3.9,4.7l-1.9,4.5h1.1l1-2.3H19c-0.1,0.2-0.1,0.4-0.1,0.5
			c0,1,0.8,1.8,1.8,1.8c1,0,1.8-0.8,1.8-1.8c0-1-0.8-1.8-1.8-1.8c0,0-0.1,0-0.1,0l-0.4-1.1c2.2-0.9,3.7-2.8,3.7-4.9
			c0-0.1,0-0.1,0-0.2h0V14.3z M19.6,22.6h-4.8l0.5-1.1c0.6,0.1,1.2,0.2,1.9,0.2c0.8,0,1.5-0.1,2.2-0.3l0.4,1.1
			C19.7,22.5,19.7,22.6,19.6,22.6z"/>
		<g>
			<g>
				<rect x="13.5" y="8.2" fill="#FFFFFF" width="0.9" height="2.4"/>
				<rect x="14.3" y="10.6" fill="#FFFFFF" width="0.9" height="2.4"/>
			</g>
			<g>
				<rect x="16" y="8.2" fill="#FFFFFF" width="0.9" height="2.4"/>
				<rect x="16.9" y="10.6" fill="#FFFFFF" width="0.9" height="2.4"/>
			</g>
			<g>
				<rect x="18.6" y="8.2" fill="#FFFFFF" width="0.9" height="2.4"/>
				<rect x="19.5" y="10.6" fill="#FFFFFF" width="0.9" height="2.4"/>
			</g>
		</g>
	</g>
</g>
</svg>
