<?xml version="1.0" encoding="utf-8"?>
<!-- Generator: Adobe Illustrator 15.1.0, SVG Export Plug-In . SVG Version: 6.00 Build 0)  -->
<!DOCTYPE svg PUBLIC "-//W3C//DTD SVG 1.1//EN" "http://www.w3.org/Graphics/SVG/1.1/DTD/svg11.dtd">
<svg version="1.1" id="Layer_1" xmlns="http://www.w3.org/2000/svg" xmlns:xlink="http://www.w3.org/1999/xlink" x="0px" y="0px"
	 width="40.01px" height="65.358px" viewBox="285.995 363.321 40.01 65.358" enable-background="new 285.995 363.321 40.01 65.358"
	 xml:space="preserve">
<g>
	<g>
		<g>
			<path fill="#4A494A" d="M310.598,391.278l-0.497-1.367c-0.87,0.249-1.74,0.373-2.734,0.373c-0.87,0-1.615-0.124-2.36-0.249
				l-0.622,1.367h5.964C310.473,391.402,310.473,391.278,310.598,391.278z"/>
			<path fill="#4A494A" d="M306,363.321c-11.059,0-20.005,8.947-20.005,20.005c0,2.733,0.497,5.343,1.491,7.704
				c0.249,0.746,18.514,37.649,18.514,37.649l17.644-35.785c1.491-2.858,2.361-6.088,2.361-9.443
				C326.005,372.268,317.059,363.321,306,363.321z M309.106,373.51h1.118v2.982h1.118v2.982h-1.118v-2.982h-1.118V373.51z
				 M305.875,373.51h1.119v2.982h1.118v2.982h-1.118v-2.982h-1.119V373.51z M302.769,373.51h1.118v2.982h0.994v2.982h-1.118v-2.982
				h-0.994V373.51z M315.691,383.078c0,0.124,0,0.124,0,0.249c0,2.609-1.863,4.97-4.598,6.088l0.497,1.367h0.125
				c1.242,0,2.236,0.994,2.236,2.237c0,1.242-0.994,2.236-2.236,2.236c-1.243,0-2.237-0.994-2.237-2.236
				c0-0.125,0-0.373,0.125-0.622h-5.592l-1.243,2.858h-1.367l2.361-5.591c-2.733-1.118-4.722-3.23-4.846-5.84h-2.485v-1.119h2.485
				v-1.615h16.774V383.078z"/>
		</g>
	</g>
</g>
</svg>
