<?xml version="1.0" encoding="utf-8"?>
<!-- Generator: Adobe Illustrator 15.1.0, SVG Export Plug-In . SVG Version: 6.00 Build 0)  -->
<!DOCTYPE svg PUBLIC "-//W3C//DTD SVG 1.1//EN" "http://www.w3.org/Graphics/SVG/1.1/DTD/svg11.dtd">
<svg version="1.1" id="Layer_1" xmlns="http://www.w3.org/2000/svg" xmlns:xlink="http://www.w3.org/1999/xlink" x="0px" y="0px"
	 width="40.01px" height="65.358px" viewBox="63.995 0.675 40.01 65.358" enable-background="new 63.995 0.675 40.01 65.358"
	 xml:space="preserve">
<g>
	<g>
		<path fill="#73CAC7" d="M84,0.675c-11.059,0-20.005,8.946-20.005,20.005c0,2.734,0.497,5.343,1.491,7.704
			C65.734,29.129,84,66.033,84,66.033l17.644-35.786c1.491-2.858,2.361-6.088,2.361-9.443C104.005,9.621,95.059,0.675,84,0.675z
			 M82.881,12.604c0,0,0,0,0-0.125c0-0.621,0.497-1.118,1.119-1.118c0.621,0,1.118,0.497,1.118,1.118v0.125
			c4.97,0.497,8.698,4.722,8.698,9.692H74.184C74.184,17.325,78.035,13.101,82.881,12.604z M94.934,25.775H73.065v-1.491h21.869
			V25.775z"/>
	</g>
</g>
</svg>
