<?xml version="1.0" encoding="utf-8"?>
<!-- Generator: Adobe Illustrator 17.1.0, SVG Export Plug-In . SVG Version: 6.00 Build 0)  -->
<!DOCTYPE svg PUBLIC "-//W3C//DTD SVG 1.1//EN" "http://www.w3.org/Graphics/SVG/1.1/DTD/svg11.dtd">
<svg version="1.1" id="Layer_1" xmlns="http://www.w3.org/2000/svg" xmlns:xlink="http://www.w3.org/1999/xlink" x="0px" y="0px"
	 viewBox="0 0 32.2 52.6" enable-background="new 0 0 32.2 52.6" xml:space="preserve">
<g>
	<path fill="#73CAC7" d="M16.1,0C7.2,0,0,7.2,0,16.1c0,2.2,0.4,4.3,1.2,6.2h0l0,0c0.2,0.6,14.9,30.3,14.9,30.3l14.2-28.8
		c1.2-2.3,1.9-4.9,1.9-7.6C32.2,7.2,25,0,16.1,0z"/>
	<g>
		<rect x="7.3" y="19" width="17.6" height="1.2"/>
		<path d="M17,9.6c0,0,0-0.1,0-0.1c0-0.5-0.4-0.9-0.9-0.9c-0.5,0-0.9,0.4-0.9,0.9c0,0.1,0,0.1,0,0.1c-3.9,0.4-7,3.8-7,7.8H24
			C24,13.4,21,10,17,9.6z"/>
	</g>
</g>
</svg>
