<?xml version="1.0" encoding="utf-8"?>
<!-- Generator: Adobe Illustrator 17.1.0, SVG Export Plug-In . SVG Version: 6.00 Build 0)  -->
<!DOCTYPE svg PUBLIC "-//W3C//DTD SVG 1.1//EN" "http://www.w3.org/Graphics/SVG/1.1/DTD/svg11.dtd">
<svg version="1.1" id="Layer_1" xmlns="http://www.w3.org/2000/svg" xmlns:xlink="http://www.w3.org/1999/xlink" x="0px" y="0px"
	 viewBox="0 0 390.1 198" enable-background="new 0 0 390.1 198" xml:space="preserve">
<g>
	<path fill="#EA603D" d="M206.2,39.6L193.5,1.1h6.9l9.3,29.4l9.4-29.4h6.3l-12.8,38.4V61h-6.6V39.6z"/>
	<path fill="#EA603D" d="M240.9,39.6L228.3,1.1h6.9l9.3,29.4l9.4-29.4h6.3l-12.8,38.4V61h-6.6V39.6z"/>
	<path fill="#EA603D" d="M290.2,15.6V21h-6.3v-5.7c0-5.4-2.1-8.6-7-8.6c-4.8,0-7,3.3-7,8.6v31.7c0,5.4,2.2,8.6,7,8.6
		c4.9,0,7-3.3,7-8.6v-7.8h6.3v7.4c0,9.1-4.3,15.1-13.5,15.1c-9.2,0-13.4-6-13.4-15.1v-31c0-9.1,4.3-15.1,13.4-15.1
		C285.9,0.5,290.2,6.5,290.2,15.6z"/>
	<path fill="#70CAC8" d="M306,39.6L293.3,1.1h6.9l9.3,29.4L319,1.1h6.3l-12.8,38.4V61H306V39.6z"/>
	<path fill="#70CAC8" d="M328.3,15.6c0-9.2,4.5-15.1,13.7-15.1c9.2,0,13.8,5.9,13.8,15.1v31c0,9.1-4.5,15.1-13.8,15.1
		c-9.2,0-13.7-6-13.7-15.1V15.6z M334.9,46.9c0,5.5,2.3,8.6,7.1,8.6c4.9,0,7.1-3.2,7.1-8.6V15.2c0-5.4-2.2-8.6-7.1-8.6
		c-4.8,0-7.1,3.3-7.1,8.6V46.9z"/>
	<path fill="#70CAC8" d="M368.5,46.9c0,5.4,2.1,8.6,7,8.6c4.8,0,6.9-3.3,6.9-8.6V1.1h6.2v45.5c0,9.1-4.2,15.2-13.4,15.2
		c-9.2,0-13.4-6.1-13.4-15.2V1.1h6.6V46.9z"/>
	<path fill="#F3E576" d="M207.2,143.7V77h-13.7v-7.5h35.6V77h-13.7v66.7H207.2z"/>
	<path fill="#F3E576" d="M243.2,110.3v33.4h-8.3V69.4h8.3v33.4h18.2V69.4h8.3v74.2h-8.3v-33.4H243.2z"/>
	<path fill="#F3E576" d="M304.5,102.3v7.4h-18.1v26.4h22.3v7.5h-30.5V69.4h30.5V77h-22.3v25.3H304.5z"/>
	<path fill="#F3E576" d="M332.9,69.4c11.7,0,16.5,5.9,16.5,17v6c0,8.2-2.9,13.3-9.2,15.3c6.8,2,9.3,7.5,9.3,15.5v11.6
		c0,3.3,0.1,6.4,1.5,8.9h-8.4c-1-2.1-1.4-4-1.4-9V123c0-8.4-3.9-11-10.8-11h-5.8v31.7h-8.3V69.4H332.9z M330.7,104.4
		c6.6,0,10.5-2.1,10.5-10.2v-7.1c0-6.7-2.4-10.2-8.6-10.2h-8.1v27.5H330.7z"/>
	<path fill="#F3E576" d="M384.5,102.3v7.4h-18.1v26.4h22.3v7.5h-30.5V69.4h30.5V77h-22.3v25.3H384.5z"/>
	<g>
		<g>
			<path fill="#999998" d="M15.7,179.1c-1.1-1-2.6-1.6-4-1.6c-3.4,0-5.4,2.6-5.4,5.8c0,2.6,1.5,5.3,5.4,5.3c1.2,0,2.3-0.3,3.6-1.3
				v-2.8h-4v-2.7H18v6.6c-1.6,1.8-3.5,2.8-6.3,2.8c-5.9,0-8.3-3.9-8.3-8c0-4.4,2.8-8.5,8.3-8.5c2.1,0,4.2,0.8,5.9,2.4L15.7,179.1z"
				/>
			<path fill="#999998" d="M31.3,185.5c0,3.2-2.2,5.8-5.8,5.8s-5.8-2.6-5.8-5.8c0-3.2,2.2-5.8,5.7-5.8S31.3,182.3,31.3,185.5z
				 M22.4,185.5c0,1.7,1,3.3,3,3.3s3-1.6,3-3.3c0-1.7-1.2-3.3-3-3.3C23.5,182.2,22.4,183.8,22.4,185.5z"/>
			<path fill="#999998" d="M44.2,185.5c0,3.2-2.2,5.8-5.8,5.8s-5.8-2.6-5.8-5.8c0-3.2,2.2-5.8,5.7-5.8S44.2,182.3,44.2,185.5z
				 M35.4,185.5c0,1.7,1,3.3,3,3.3s3-1.6,3-3.3c0-1.7-1.2-3.3-3-3.3C36.4,182.2,35.4,183.8,35.4,185.5z"/>
			<path fill="#999998" d="M57.6,175.3V191h-2.6l-0.2-1.5c-0.9,1.3-2.2,1.8-3.6,1.8c-3.3,0-5.7-2.2-5.7-5.8c0-3.8,2.4-5.8,5.7-5.8
				c1.2,0,3,0.6,3.6,1.8v-6.2H57.6z M48.3,185.5c0,1.9,1.4,3.3,3.2,3.3c1.7,0,3.2-1.3,3.2-3.3c0-1.9-1.5-3.2-3.2-3.2
				C49.7,182.2,48.3,183.5,48.3,185.5z"/>
			<path fill="#999998" d="M72.2,186.4h-4.5v4.6h-3v-15.8c2.5,0,5,0,7.4,0C79.9,175.2,79.9,186.4,72.2,186.4z M67.8,183.7h4.5
				c3.8,0,3.8-5.6,0-5.6h-4.5V183.7z"/>
			<path fill="#999998" d="M88.2,179.9h2.6V191h-2.6l-0.1-1.6c-0.6,1.3-2.4,1.9-3.6,2c-3.3,0-5.7-2-5.7-5.9c0-3.8,2.5-5.8,5.8-5.8
				c1.5,0,2.9,0.7,3.5,1.8L88.2,179.9z M81.5,185.5c0,2.1,1.5,3.4,3.3,3.4c4.3,0,4.3-6.7,0-6.7C83,182.1,81.5,183.3,81.5,185.5z"/>
			<path fill="#999998" d="M95.7,179.9l0.2,1.3c0.9-1.4,2-1.6,3.1-1.6c1.1,0,2.3,0.5,2.9,1.1l-1.2,2.4c-0.6-0.5-1.1-0.7-2-0.7
				c-1.4,0-2.8,0.8-2.8,2.8v5.9h-2.7v-11.1H95.7z"/>
			<path fill="#999998" d="M107.5,176.8v3.2h3.1v2.4h-3.1v4.8c0,1.1,0.6,1.6,1.4,1.6c0.4,0,0.9-0.1,1.3-0.3l0.8,2.3
				c-0.8,0.3-1.4,0.5-2.3,0.5c-2.4,0.1-4-1.3-4-4.1v-4.8h-2.1v-2.4h2.1v-2.9L107.5,176.8z"/>
			<path fill="#999998" d="M115.6,176.8c0,2.1-3.2,2.1-3.2,0C112.4,174.6,115.6,174.6,115.6,176.8z M112.6,179.9V191h2.7v-11.2
				H112.6z"/>
			<path fill="#999998" d="M120.2,186.5c0.2,1.4,1.4,2.4,3.3,2.4c1,0,2.3-0.4,3-1l1.8,1.7c-1.2,1.2-3.1,1.8-4.8,1.8
				c-3.8,0-6.1-2.4-6.1-5.9c0-3.4,2.3-5.8,5.9-5.8c3.7,0,6,2.3,5.6,6.9H120.2z M126.2,184.2c-0.2-1.4-1.3-2.2-2.9-2.2
				c-1.5,0-2.7,0.7-3.1,2.2H126.2z"/>
			<path fill="#999998" d="M138.2,182.9c-0.8-0.7-1.7-1-2.7-1c-1.3,0-2,0.4-2,1.1c0,0.7,0.7,1.1,2.1,1.2c2.1,0.1,4.8,0.6,4.8,3.6
				c0,2-1.6,3.6-4.8,3.6c-1.8,0-3.5-0.3-5.1-2l1.4-2c0.8,0.9,2.6,1.5,3.8,1.6c1,0,2-0.5,2-1.3c0-0.8-0.6-1.1-2.2-1.2
				c-2.1-0.2-4.6-0.9-4.6-3.4c0-2.6,2.7-3.5,4.7-3.5c1.7,0,3,0.3,4.3,1.5L138.2,182.9z"/>
			<path fill="#999998" d="M160.5,179.6l-5.1,6.8h-0.6l-5-6.9V191h-3v-15.8h3.4l4.9,6.8l4.9-6.8h3.4V191h-3V179.6z"/>
			<path fill="#999998" d="M175.2,179.9h2.6V191h-2.6l-0.1-1.6c-0.6,1.3-2.4,1.9-3.6,2c-3.3,0-5.7-2-5.7-5.9c0-3.8,2.5-5.8,5.8-5.8
				c1.5,0,2.9,0.7,3.5,1.8L175.2,179.9z M168.5,185.5c0,2.1,1.5,3.4,3.3,3.4c4.3,0,4.3-6.7,0-6.7C170,182.1,168.5,183.3,168.5,185.5
				z"/>
			<path fill="#999998" d="M182.8,175.3v9.1l3.7-4.5h3.3v0.2l-4.5,5.1l5.2,5.7v0.2h-3.3l-4.3-5v5h-2.7v-15.7H182.8z"/>
			<path fill="#999998" d="M194.1,186.5c0.2,1.4,1.4,2.4,3.3,2.4c1,0,2.3-0.4,3-1l1.8,1.7c-1.2,1.2-3.1,1.8-4.8,1.8
				c-3.8,0-6.1-2.4-6.1-5.9c0-3.4,2.3-5.8,5.9-5.8c3.7,0,6,2.3,5.6,6.9H194.1z M200.1,184.2c-0.2-1.4-1.3-2.2-2.9-2.2
				c-1.5,0-2.7,0.7-3.1,2.2H200.1z"/>
			<path fill="#999998" d="M221.4,179.1c-1.1-1-2.6-1.6-4-1.6c-3.4,0-5.4,2.6-5.4,5.8c0,2.6,1.5,5.3,5.4,5.3c1.2,0,2.3-0.3,3.6-1.3
				v-2.8h-4v-2.7h6.8v6.6c-1.6,1.8-3.5,2.8-6.3,2.8c-5.9,0-8.3-3.9-8.3-8c0-4.4,2.8-8.5,8.3-8.5c2.1,0,4.2,0.8,5.9,2.4L221.4,179.1z
				"/>
			<path fill="#999998" d="M236.9,185.5c0,3.2-2.2,5.8-5.8,5.8c-3.6,0-5.8-2.6-5.8-5.8c0-3.2,2.2-5.8,5.7-5.8
				S236.9,182.3,236.9,185.5z M228.1,185.5c0,1.7,1,3.3,3,3.3c2,0,3-1.6,3-3.3c0-1.7-1.2-3.3-3-3.3
				C229.1,182.2,228.1,183.8,228.1,185.5z"/>
			<path fill="#999998" d="M249.8,185.5c0,3.2-2.2,5.8-5.8,5.8s-5.8-2.6-5.8-5.8c0-3.2,2.2-5.8,5.7-5.8
				C247.6,179.7,249.8,182.3,249.8,185.5z M241,185.5c0,1.7,1,3.3,3,3.3c2,0,3-1.6,3-3.3c0-1.7-1.2-3.3-3-3.3
				C242.1,182.2,241,183.8,241,185.5z"/>
			<path fill="#999998" d="M263.3,175.3V191h-2.6l-0.2-1.5c-0.9,1.3-2.2,1.8-3.6,1.8c-3.3,0-5.7-2.2-5.7-5.8c0-3.8,2.4-5.8,5.7-5.8
				c1.2,0,3,0.6,3.6,1.8v-6.2H263.3z M254,185.5c0,1.9,1.4,3.3,3.2,3.3c1.7,0,3.2-1.3,3.2-3.3c0-1.9-1.5-3.2-3.2-3.2
				C255.4,182.2,254,183.5,254,185.5z"/>
			<path fill="#999998" d="M280.8,175.2h3V191h-1.8v0l-8.3-10.7V191h-3v-15.8h2.4l7.7,9.8V175.2z"/>
			<path fill="#999998" d="M288.7,186.5c0.2,1.4,1.4,2.4,3.3,2.4c1,0,2.3-0.4,3-1l1.8,1.7c-1.2,1.2-3.1,1.8-4.8,1.8
				c-3.8,0-6.1-2.4-6.1-5.9c0-3.4,2.3-5.8,5.9-5.8c3.7,0,6,2.3,5.6,6.9H288.7z M294.7,184.2c-0.2-1.4-1.3-2.2-2.9-2.2
				c-1.5,0-2.7,0.7-3.1,2.2H294.7z"/>
			<path fill="#999998" d="M302.5,176.8c0,2.1-3.2,2.1-3.2,0C299.2,174.6,302.5,174.6,302.5,176.8z M299.5,179.9V191h2.7v-11.2
				H299.5z"/>
			<path fill="#999998" d="M313.4,178.8l2,1.5l-1.2,1.6c0.9,1,1.2,2.1,1.2,3.3c0,1.4-0.5,3.3-2.3,4.1c1.8,0.9,2.3,2.3,2.3,3.7
				c0,3.1-2.3,5-5.6,5s-5.6-2-5.6-5h2.7c0,1.4,1.3,2.4,2.9,2.4c1.6,0,2.8-0.9,2.8-2.4s-1.4-2.2-2.8-2.2c-3.5,0-5.6-2.1-5.6-5.6
				c0-3.5,2.5-5.6,5.6-5.6c0.9,0,1.8,0.1,2.5,0.6L313.4,178.8z M306.8,185.2c0,1.9,1.3,3.1,2.9,3.1c1.6,0,2.9-1.2,2.9-3.1
				c0-1.9-1.3-3.1-2.9-3.1C308.2,182.1,306.8,183.3,306.8,185.2z"/>
			<path fill="#999998" d="M320.1,175.3v6.2c1-1.3,2.2-1.7,3.5-1.7c3.2,0,4.6,2.1,4.6,5.4v5.9h-2.7v-5.8c0-2-1.1-2.9-2.5-2.9
				c-1.6,0-2.7,1.4-2.7,3v5.7h-2.7v-15.8H320.1z"/>
			<path fill="#999998" d="M333.2,175.3v6.2c0.7-1.1,2.5-1.8,3.6-1.8c3.2,0,5.7,2,5.7,5.8c0,3.6-2.5,5.8-5.7,5.8
				c-1.4,0-2.7-0.5-3.6-1.8L333,191h-2.6v-15.7H333.2z M333.4,185.5c0,2,1.5,3.3,3.2,3.3c1.8,0,3.2-1.3,3.2-3.3c0-2-1.4-3.2-3.2-3.2
				C334.9,182.2,333.4,183.5,333.4,185.5z"/>
			<path fill="#999998" d="M355.6,185.5c0,3.2-2.2,5.8-5.8,5.8s-5.8-2.6-5.8-5.8c0-3.2,2.2-5.8,5.7-5.8S355.6,182.3,355.6,185.5z
				 M346.8,185.5c0,1.7,1,3.3,3,3.3s3-1.6,3-3.3c0-1.7-1.2-3.3-3-3.3C347.8,182.2,346.8,183.8,346.8,185.5z"/>
			<path fill="#999998" d="M360.3,179.9v5.8c0,1.7,0.9,3,2.7,3c1.7,0,2.8-1.4,2.8-3.1v-5.7h2.7V191h-2.5l-0.2-1.5
				c-1.1,1.1-2.2,1.7-3.8,1.7c-2.7,0-4.6-2-4.6-5.5v-5.8H360.3z"/>
			<path fill="#999998" d="M373.5,179.9l0.2,1.3c0.9-1.4,2-1.6,3.1-1.6c1.1,0,2.3,0.5,2.9,1.1l-1.2,2.4c-0.6-0.5-1.1-0.7-2-0.7
				c-1.4,0-2.8,0.8-2.8,2.8v5.9H371v-11.1H373.5z"/>
			<path fill="#999998" d="M388,182.9c-0.8-0.7-1.7-1-2.7-1c-1.3,0-2,0.4-2,1.1c0,0.7,0.7,1.1,2.1,1.2c2.1,0.1,4.8,0.6,4.8,3.6
				c0,2-1.6,3.6-4.8,3.6c-1.8,0-3.5-0.3-5.1-2l1.4-2c0.8,0.9,2.6,1.5,3.8,1.6c1,0,2-0.5,2-1.3c0-0.8-0.6-1.1-2.2-1.2
				c-2.1-0.2-4.6-0.9-4.6-3.4c0-2.6,2.7-3.5,4.7-3.5c1.7,0,3,0.3,4.3,1.5L388,182.9z"/>
		</g>
	</g>
	<g>
		<g>
			<path fill="#EA603D" d="M39.9,0C17.9,0,0,17.9,0,39.9c0,14.3,7.5,26.8,18.8,33.8l0,0l61.1,40.7V39.9C79.9,17.9,62,0,39.9,0z"/>
			<circle fill="#F3E871" cx="39.9" cy="39.3" r="12.5"/>
		</g>
		<g>
			<path fill="#F3E576" d="M119.4,0c22.1,0,39.9,17.9,39.9,39.9c0,14.3-7.5,26.8-18.8,33.8l0,0l-61.1,40.7V39.9
				C79.5,17.9,97.4,0,119.4,0z"/>
			<circle fill="#70CAC8" cx="119.4" cy="39.3" r="12.5"/>
		</g>
	</g>
	<ellipse fill="#E0E0E0" cx="79.7" cy="138.4" rx="31.8" ry="5.1"/>
</g>
</svg>
