<?xml version="1.0" encoding="utf-8"?>
<!-- Generator: Adobe Illustrator 17.1.0, SVG Export Plug-In . SVG Version: 6.00 Build 0)  -->
<!DOCTYPE svg PUBLIC "-//W3C//DTD SVG 1.1//EN" "http://www.w3.org/Graphics/SVG/1.1/DTD/svg11.dtd">
<svg version="1.1" id="Layer_1" xmlns="http://www.w3.org/2000/svg" xmlns:xlink="http://www.w3.org/1999/xlink" x="0px" y="0px"
	 viewBox="0 0 194.3 71.8" enable-background="new 0 0 194.3 71.8" xml:space="preserve">
<path fill="#EA603D" d="M103.1,19.8L96.7,0.6h3.5l4.7,14.7l4.7-14.7h3.2l-6.4,19.2v10.7h-3.3V19.8z"/>
<path fill="#EA603D" d="M120.5,19.8l-6.3-19.2h3.5l4.7,14.7L127,0.6h3.2l-6.4,19.2v10.7h-3.3V19.8z"/>
<path fill="#EA603D" d="M145.1,7.8v2.7h-3.2V7.6c0-2.7-1.1-4.3-3.5-4.3c-2.4,0-3.5,1.6-3.5,4.3v15.8c0,2.7,1.1,4.3,3.5,4.3
	c2.4,0,3.5-1.6,3.5-4.3v-3.9h3.2v3.7c0,4.5-2.1,7.5-6.8,7.5c-4.6,0-6.7-3-6.7-7.5V7.8c0-4.5,2.1-7.5,6.7-7.5
	C143,0.3,145.1,3.3,145.1,7.8z"/>
<path fill="#70CAC8" d="M153,19.8l-6.3-19.2h3.5l4.7,14.7l4.7-14.7h3.2l-6.4,19.2v10.7H153V19.8z"/>
<path fill="#70CAC8" d="M164.2,7.8c0-4.6,2.3-7.5,6.8-7.5c4.6,0,6.9,3,6.9,7.5v15.5c0,4.5-2.3,7.5-6.9,7.5c-4.6,0-6.8-3-6.8-7.5V7.8
	z M167.5,23.5c0,2.7,1.2,4.3,3.6,4.3c2.4,0,3.6-1.6,3.6-4.3V7.6c0-2.7-1.1-4.3-3.6-4.3c-2.4,0-3.6,1.6-3.6,4.3V23.5z"/>
<path fill="#70CAC8" d="M184.2,23.5c0,2.7,1.1,4.3,3.5,4.3c2.4,0,3.5-1.6,3.5-4.3V0.6h3.1v22.7c0,4.5-2.1,7.6-6.7,7.6
	c-4.6,0-6.7-3-6.7-7.6V0.6h3.3V23.5z"/>
<path fill="#F3E576" d="M103.6,71.8V38.5h-6.8v-3.8h17.8v3.8h-6.8v33.3H103.6z"/>
<path fill="#F3E576" d="M121.6,55.1v16.7h-4.1V34.7h4.1v16.7h9.1V34.7h4.1v37.1h-4.1V55.1H121.6z"/>
<path fill="#F3E576" d="M152.3,51.2v3.7h-9.1v13.2h11.1v3.8h-15.3V34.7h15.3v3.8h-11.1v12.7H152.3z"/>
<path fill="#F3E576" d="M166.4,34.7c5.8,0,8.3,3,8.3,8.5v3c0,4.1-1.4,6.6-4.6,7.6c3.4,1,4.7,3.8,4.7,7.7v5.8c0,1.6,0.1,3.2,0.7,4.5
	h-4.2c-0.5-1.1-0.7-2-0.7-4.5v-5.8c0-4.2-2-5.5-5.4-5.5h-2.9v15.9h-4.1V34.7H166.4z M165.4,52.2c3.3,0,5.2-1.1,5.2-5.1v-3.6
	c0-3.3-1.2-5.1-4.3-5.1h-4v13.7H165.4z"/>
<path fill="#F3E576" d="M192.2,51.2v3.7h-9.1v13.2h11.1v3.8H179V34.7h15.3v3.8h-11.1v12.7H192.2z"/>
<path fill="#EA603D" d="M0,20c0,7.1,3.8,13.4,9.4,16.9l0,0l30.6,20.4V20c0-11-8.9-20-20-20S0,8.9,0,20"/>
<circle fill="#F3E871" cx="20" cy="19.6" r="6.2"/>
<g>
	<path fill="#F3E576" d="M59.7,0c11,0,20,8.9,20,20c0,7.1-3.8,13.4-9.4,16.9l0,0L39.7,57.3V20C39.7,8.9,48.7,0,59.7,0z"/>
	<circle fill="#70CAC8" cx="59.7" cy="19.6" r="6.2"/>
</g>
<ellipse fill="#E0E0E0" cx="39.8" cy="69.2" rx="15.9" ry="2.5"/>
</svg>
