<?xml version="1.0" encoding="utf-8"?>
<!-- Generator: Adobe Illustrator 17.1.0, SVG Export Plug-In . SVG Version: 6.00 Build 0)  -->
<!DOCTYPE svg PUBLIC "-//W3C//DTD SVG 1.1//EN" "http://www.w3.org/Graphics/SVG/1.1/DTD/svg11.dtd">
<svg version="1.1" id="Layer_1" xmlns="http://www.w3.org/2000/svg" xmlns:xlink="http://www.w3.org/1999/xlink" x="0px" y="0px"
	 viewBox="0 0 32.2 52.6" enable-background="new 0 0 32.2 52.6" xml:space="preserve">
<g>
	<path fill="#F0E879" d="M16.1,0C7.2,0,0,7.2,0,16.1c0,2.2,0.4,4.3,1.2,6.2h0l0,0c0.2,0.6,14.9,30.3,14.9,30.3l14.2-28.8
		c1.2-2.3,1.9-4.9,1.9-7.6C32.2,7.2,25,0,16.1,0z"/>
	<path d="M21.7,13.1l-5.6-5l-5.6,5H7.1V15h1.4l0.7,6.8h6.7h0.5h6.7l0.7-6.8h1.4v-1.8H21.7z M15.9,13.1h-3.4l3.7-3.3l3.7,3.3h-3.4
		H15.9z"/>
</g>
</svg>
