<?xml version="1.0" encoding="utf-8"?>
<!-- Generator: Adobe Illustrator 17.1.0, SVG Export Plug-In . SVG Version: 6.00 Build 0)  -->
<!DOCTYPE svg PUBLIC "-//W3C//DTD SVG 1.1//EN" "http://www.w3.org/Graphics/SVG/1.1/DTD/svg11.dtd">
<svg version="1.1" id="Layer_1" xmlns="http://www.w3.org/2000/svg" xmlns:xlink="http://www.w3.org/1999/xlink" x="0px" y="0px"
	 viewBox="0 0 32.2 52.6" enable-background="new 0 0 32.2 52.6" xml:space="preserve">
<g>
	<path fill="#E86144" d="M16.1,0C7.2,0,0,7.2,0,16.1c0,2.2,0.4,4.3,1.2,6.2h0l0,0c0.2,0.6,14.9,30.3,14.9,30.3l14.2-28.8
		c1.2-2.3,1.9-4.9,1.9-7.6C32.2,7.2,25,0,16.1,0z"/>
	<g>
		<path d="M25.1,13.4h-2.7H9.9H7.2v1h2v6.2c0,0.4,0.3,0.7,0.7,0.7h12.5c0.4,0,0.7-0.3,0.7-0.7v-6.2h2V13.4z"/>
		<path d="M22.4,10.4h-5.2V8.5H15v1.8H9.8c-0.4,0-0.7,0.3-0.7,0.7v1h14v-1C23.1,10.7,22.8,10.4,22.4,10.4z"/>
	</g>
</g>
</svg>
