<?xml version="1.0" encoding="utf-8"?>
<!-- Generator: Adobe Illustrator 17.1.0, SVG Export Plug-In . SVG Version: 6.00 Build 0)  -->
<!DOCTYPE svg PUBLIC "-//W3C//DTD SVG 1.1//EN" "http://www.w3.org/Graphics/SVG/1.1/DTD/svg11.dtd">
<svg version="1.1" id="Layer_1" xmlns="http://www.w3.org/2000/svg" xmlns:xlink="http://www.w3.org/1999/xlink" x="0px" y="0px"
	 viewBox="0 0 87.2 70.8" enable-background="new 0 0 87.2 70.8" xml:space="preserve">
<path fill="#70CAC8" d="M87.2,8.4c-3.2,1.4-6.7,2.4-10.3,2.8c3.7-2.2,6.5-5.7,7.9-9.9c-3.5,2-7.3,3.5-11.4,4.3
	C70.1,2.2,65.5,0,60.4,0c-9.9,0-17.9,8-17.9,17.9c0,1.4,0.2,2.8,0.5,4.1c-14.9-0.7-28-7.9-36.9-18.7c-1.5,2.6-2.4,5.7-2.4,9
	c0,6.2,3.2,11.7,8,14.9c-2.9-0.1-5.7-0.9-8.1-2.2c0,0.1,0,0.1,0,0.2c0,8.7,6.2,15.9,14.3,17.5c-1.5,0.4-3.1,0.6-4.7,0.6
	c-1.2,0-2.3-0.1-3.4-0.3c2.3,7.1,8.9,12.3,16.7,12.4c-6.1,4.8-13.8,7.7-22.2,7.7c-1.4,0-2.9-0.1-4.3-0.2c7.9,5.1,17.3,8,27.4,8
	c32.9,0,50.9-27.3,50.9-50.9c0-0.8,0-1.5-0.1-2.3C81.7,15.1,84.8,12,87.2,8.4z"/>
</svg>
